<?xml version="1.0" encoding="utf-8"?>
<!-- Generator: Adobe Illustrator 18.0.0, SVG Export Plug-In . SVG Version: 6.00 Build 0)  -->
<!DOCTYPE svg PUBLIC "-//W3C//DTD SVG 1.1//EN" "http://www.w3.org/Graphics/SVG/1.1/DTD/svg11.dtd">
<svg version="1.1" id="Layer_1" xmlns="http://www.w3.org/2000/svg" xmlns:xlink="http://www.w3.org/1999/xlink" x="0px" y="0px"
	 viewBox="234.8 0 322.3 519.6" style="enable-background:new 234.8 0 322.3 519.6;" xml:space="preserve" width="630" height="270">
<style type="text/css">
	.st0{fill:none;stroke:#E0EECB;stroke-width:3;stroke-miterlimit:10;}
	.st1{fill:none;stroke:#FDD08E;stroke-width:6.3559;stroke-miterlimit:10;}
	.st2{fill:none;stroke:#B2D5D1;stroke-width:6.3559;stroke-miterlimit:10;}
	.st3{fill:none;stroke:#90A75C;stroke-width:5.2859;stroke-miterlimit:10;}
	.st4{fill:#E0EECB;}
	.st5{font-family:"ff-dagny-web-pro", Helvetica Neue, Helvetica, sans-serif; font-weight: bold;}
	.st6{font-size:25.3805px;}
	.st7{fill:#010101;}
	.st8{font-size:16.0705px;}
	.st9{fill:#9DCC57;}
	.st10{fill:#FFFFFF;}
	.st11{font-size:10.905px;}
	.st12{font-size:12.6268px;}
	.st13{fill:none;stroke:#BCBEC0;stroke-width:34.5886;stroke-miterlimit:10;}
	.st14{fill:none;stroke:#BCBEC0;stroke-width:17.7884;stroke-miterlimit:10;}
	.st15{fill:none;stroke:#BCBEC0;stroke-width:14.8237;stroke-miterlimit:10;}
	.st16{font-size:9.1832px;}
	.st17{fill:none;}
	.st18{enable-background:new    ;}
	.st19{font-size:8px;}
	.st20{fill:#FBAF41;}
	.st21{fill:#7DB9B3;}
</style>
<path id="dk-snohomishpud" class="st0" d="M285.8,490.9c0,0-69.3-33.9-32.8-131.4"/>
<g id="smartgrid-lines">
	<line class="st1" x1="308.9" y1="440.3" x2="294.3" y2="361.8"/>
	<line class="st1" x1="346.8" y1="438.3" x2="399.4" y2="362.4"/>
	<line class="st2" x1="445.9" y1="438.3" x2="322.6" y2="362.4"/>
	<line class="st2" x1="481.5" y1="438.3" x2="494.5" y2="362.4"/>
</g>
<g id="CEF">
	<rect x="250.5" y="68.1" class="st3" width="290.9" height="171.7"/>
	<rect x="250.5" y="68.1" class="st4" width="290.9" height="171.7"/>
	<g>
		<text transform="matrix(1 0 0 1 260.832 140.4165)" class="st5 st6">CLEAN ENERGY FUND</text>
	</g>
	<text transform="matrix(1 0 0 1 312.2881 161.7713)" class="st7 st5 st8">$36 million total fund</text>
</g>
<g id="CEF-smartgrid-section">
	<g>
		<rect x="250.6" y="169.1" class="st9" width="290.9" height="70.7"/>
	</g>
	<text transform="matrix(1 0 0 1 294.2637 206.5137)" class="st10 st5 st11">$15 MILLION TO SMART GRID GRANTS</text>
</g>
<g id="CEF-people">
	<g id="DavidKaplan">
		<path d="M292.7,30.9c-2.2-1-4.1-1.4-5.3-1.5c0-0.2,0-0.3-0.1-0.5c-0.2-0.5-0.1-0.7-1.3-1c-0.4-0.1-0.7-0.4-1-0.6
			c-0.1-0.9-0.1-2.1-0.1-2.1s1.1-0.6,1.5-4.6c0,0,0.7-0.3,0.8-0.6c0.1-0.3,0.3-1.5,0.7-2.8c0.3-1-0.6-1.2-0.6-1.2s0.3-0.7,0.5-1.5
			c0.3-1.7,0.1-4.2-1.5-6.1c-0.9-1.1-2.1-2.1-4.4-2.2l-0.8-0.3l-0.6,0.1c-6.3,0.4-6.8,5.6-6.4,8.3c0.1,1,0.7,1.8,0.7,1.8
			s-0.9,0.2-0.6,1.2c0.4,1.3,0.6,2.4,0.7,2.8c0.1,0.3,0.8,0.6,0.8,0.6c0.5,4,1.5,4.6,1.5,4.6s-0.1,1.4-0.1,2.4
			c-0.1,0-0.1,0.1-0.1,0.1c-1.1,0.6-2.4,0.9-2.7,1.9l0,0c-1.2,0.2-2.9,0.6-4.9,1.5c-3.4,1.5-3,4.5-3,4.5h29.2
			C295.8,35.4,296.2,32.4,292.7,30.9z"/>
		<g>
			<text transform="matrix(1 0 0 1 263.62 47.787)" class="st7 st5 st12">David</text>
			<text transform="matrix(1 0 0 1 259.8319 60.9874)" class="st7 st5 st12">Kaplan</text>
		</g>
	</g>
	<g id="RogersWeed">
		<path d="M369.3,30.9c-2.2-1-4.1-1.4-5.3-1.5c0-0.2,0-0.3-0.1-0.5c-0.2-0.5-0.1-0.7-1.3-1c-0.4-0.1-0.7-0.4-1-0.6
			c-0.1-0.9-0.1-2.1-0.1-2.1s1.1-0.6,1.5-4.6c0,0,0.7-0.3,0.8-0.6c0.1-0.3,0.3-1.5,0.7-2.8c0.3-1-0.6-1.2-0.6-1.2s0.3-0.7,0.5-1.5
			c0.3-1.7,0.1-4.2-1.5-6.1c-0.9-1.1-2.1-2.1-4.4-2.2l-0.8-0.3l-0.6,0.1c-6.3,0.4-6.8,5.6-6.4,8.3c0.1,1,0.7,1.8,0.7,1.8
			s-0.9,0.2-0.6,1.2c0.4,1.3,0.6,2.4,0.7,2.8c0.1,0.3,0.8,0.6,0.8,0.6c0.5,4,1.5,4.6,1.5,4.6s-0.1,1.4-0.1,2.4
			c-0.1,0-0.1,0.1-0.1,0.1c-1.1,0.6-2.4,0.9-2.7,1.9l0,0c-1.2,0.2-2.9,0.6-4.9,1.5c-3.4,1.5-3,4.5-3,4.5h29.2
			C372.3,35.4,372.8,32.4,369.3,30.9z"/>
		<g>
			<text transform="matrix(1 0 0 1 335.8827 47.787)" class="st7 st5 st12">Rogers </text>
			<text transform="matrix(1 0 0 1 339.8431 60.9874)" class="st7 st5 st12">Weed</text>
		</g>
	</g>
	<g id="DanielMalarkey">
		<path d="M445.9,30.9c-2.2-1-4.1-1.4-5.3-1.5c0-0.2,0-0.3-0.1-0.5c-0.2-0.5-0.1-0.7-1.3-1c-0.4-0.1-0.7-0.4-1-0.6
			c-0.1-0.9-0.1-2.1-0.1-2.1s1.1-0.6,1.5-4.6c0,0,0.7-0.3,0.8-0.6c0.1-0.3,0.3-1.5,0.7-2.8c0.3-1-0.6-1.2-0.6-1.2s0.3-0.7,0.5-1.5
			c0.3-1.7,0.1-4.2-1.5-6.1c-0.9-1.1-2.1-2.1-4.4-2.2l-0.8-0.3l-0.6,0.1c-6.3,0.4-6.8,5.6-6.4,8.3c0.1,1,0.7,1.8,0.7,1.8
			s-0.9,0.2-0.6,1.2c0.4,1.3,0.6,2.4,0.7,2.8c0.1,0.3,0.8,0.6,0.8,0.6c0.5,4,1.5,4.6,1.5,4.6s-0.1,1.4-0.1,2.4
			c-0.1,0-0.1,0.1-0.1,0.1c-1.1,0.6-2.4,0.9-2.7,1.9l0,0c-1.2,0.2-2.9,0.6-4.9,1.5c-3.4,1.5-3,4.5-3,4.5h29.2
			C448.9,35.4,449.3,32.4,445.9,30.9z"/>
		<g>
			<text transform="matrix(1 0 0 1 414.7656 47.787)" class="st7 st5 st12">Daniel </text>
			<text transform="matrix(1 0 0 1 405.9266 60.9874)" class="st7 st5 st12">Malarkey</text>
		</g>
	</g>
	<g id="MichaelCarr">
		<path d="M522.4,30.9c-2.2-1-4.1-1.4-5.3-1.5c0-0.2,0-0.3-0.1-0.5c-0.2-0.5-0.1-0.7-1.3-1c-0.4-0.1-0.7-0.4-1-0.6
			c-0.1-0.9-0.1-2.1-0.1-2.1s1.1-0.6,1.5-4.6c0,0,0.7-0.3,0.8-0.6c0.1-0.3,0.3-1.5,0.7-2.8c0.3-1-0.6-1.2-0.6-1.2s0.3-0.7,0.5-1.5
			c0.3-1.7,0.1-4.2-1.5-6.1c-0.9-1.1-2.1-2.1-4.4-2.2l-0.7-0.3l-0.6,0.1c-6.3,0.4-6.8,5.6-6.4,8.3c0.1,1,0.7,1.8,0.7,1.8
			s-0.9,0.2-0.6,1.2c0.4,1.3,0.6,2.4,0.7,2.8c0.1,0.3,0.8,0.6,0.8,0.6c0.5,4,1.5,4.6,1.5,4.6s-0.1,1.4-0.1,2.4
			c-0.1,0-0.1,0.1-0.1,0.1c-1.1,0.6-2.4,0.9-2.7,1.9l0,0c-1.2,0.2-2.9,0.6-4.9,1.5c-3.4,1.5-3,4.5-3,4.5h29.2
			C525.4,35.4,525.8,32.4,522.4,30.9z"/>
		<g>
			<text transform="matrix(1 0 0 1 487.0566 47.787)" class="st7 st5 st12">Michael </text>
			<text transform="matrix(1 0 0 1 497.1004 60.9874)" class="st7 st5 st12">Carr</text>
		</g>
	</g>
</g>
<g id="CEF-lines">
	<line class="st13" x1="295.9" y1="243.3" x2="295.9" y2="291"/>
	<line class="st14" x1="396" y1="243.3" x2="396" y2="291"/>
	<line class="st15" x1="494.4" y1="243.3" x2="494.4" y2="291"/>
</g>
<g id="avista">
	<rect x="448.9" y="292.1" class="st9" width="91.3" height="73.8"/>
	<text transform="matrix(1 0 0 1 462.7236 354.9434)" class="st7 st5 st16">$3.2 MILLION</text>
	<text transform="matrix(1 0 0 1 474.1601 323.5371)" class="st10 st5 st11">AVISTA</text>
</g>
<g id="pse">
	<rect x="350.4" y="292.1" class="st9" width="91.3" height="73.8"/>
	<text transform="matrix(1 0 0 1 364.1856 354.9434)" class="st7 st5 st16">$3.8 MILLION</text>
	<text transform="matrix(1 0 0 1 356.3235 316.9356)" class="st10 st5 st11">PUGET SOUND</text>
	<text transform="matrix(1 0 0 1 372.1074 330.7099)" class="st10 st5 st11">ENERGY </text>
</g>
<g id="sno-pud">
	<rect x="250.3" y="292.1" class="st9" width="91.3" height="73.8"/>
	<g>
		<path class="st17" d="M296,329"/>
	</g>
	<text transform="matrix(1 0 0 1 262.0049 316.9356)" class="st10 st5 st11">SNOHOMISH</text>
	<text transform="matrix(1 0 0 1 283.0117 330.7099)" class="st10 st5 st11">PUD </text>
	<text transform="matrix(1 0 0 1 264.4276 354.9434)" class="st7 st5 st16">$7.3 MILLION</text>
</g>
<g id="_x31_energy-people">
	<g id="DavidKaplan-bottom">
		<path class="st7" d="M303.2,494.4c-2-0.9-3.8-1.3-4.9-1.4c0-0.2,0-0.3-0.1-0.5c-0.2-0.4-0.1-0.6-1.2-0.9c-0.3-0.1-0.7-0.3-0.9-0.6
			c-0.1-0.9-0.1-1.9-0.1-1.9s1-0.5,1.4-4.2c0,0,0.6-0.3,0.7-0.6c0.1-0.3,0.3-1.4,0.7-2.5c0.3-0.9-0.5-1.1-0.5-1.1s0.3-0.7,0.4-1.4
			c0.3-1.5,0.1-3.8-1.4-5.6c-0.9-1-1.9-1.9-4-2.1l-0.7-0.3l-0.5,0.1c-5.7,0.3-6.2,5.1-5.8,7.6c0.1,0.9,0.6,1.6,0.6,1.6
			s-0.8,0.2-0.5,1.1c0.3,1.1,0.6,2.2,0.7,2.5c0.1,0.3,0.7,0.6,0.7,0.6c0.4,3.7,1.4,4.2,1.4,4.2s-0.1,1.3-0.1,2.1
			c-0.1,0-0.1,0.1-0.1,0.1c-1,0.6-2.1,0.9-2.5,1.7l0,0c-1.1,0.2-2.7,0.6-4.5,1.4c-3.2,1.4-2.7,4.1-2.7,4.1h26.6
			C305.9,498.5,306.3,495.8,303.2,494.4z"/>
		<g>
			<text transform="matrix(1 0 0 1 281.7889 508.4395)" class="st18"><tspan x="0" y="0" class="st7 st5 st19">David</tspan><tspan x="-2.5" y="9" class="st7 st5 st19">Kaplan</tspan></text>
		</g>
	</g>
	<g id="RogersWeed-bottom">
		<path class="st7" d="M338.5,494.4c-2-0.9-3.8-1.3-4.9-1.4c0-0.2,0-0.3-0.1-0.5c-0.2-0.4-0.1-0.6-1.2-0.9c-0.3-0.1-0.7-0.3-0.9-0.6
			c-0.1-0.9-0.1-1.9-0.1-1.9s1-0.5,1.4-4.2c0,0,0.6-0.3,0.7-0.6c0.1-0.3,0.3-1.4,0.7-2.5c0.3-0.9-0.5-1.1-0.5-1.1s0.3-0.7,0.4-1.4
			c0.3-1.5,0.1-3.8-1.4-5.6c-0.9-1-1.9-1.9-4-2.1l-0.7-0.3l-0.5,0.1c-5.7,0.3-6.2,5.1-5.8,7.6c0.1,0.9,0.6,1.6,0.6,1.6
			s-0.8,0.2-0.5,1.1c0.3,1.1,0.6,2.2,0.7,2.5c0.1,0.3,0.7,0.6,0.7,0.6c0.4,3.7,1.4,4.2,1.4,4.2s-0.1,1.3-0.1,2.1
			c-0.1,0-0.1,0.1-0.1,0.1c-1,0.6-2.1,0.9-2.5,1.7l0,0c-1.1,0.2-2.7,0.6-4.5,1.4c-3.2,1.4-2.7,4.1-2.7,4.1h26.6
			C341.2,498.5,341.6,495.8,338.5,494.4z"/>
		<g>
			<g>
				<text transform="matrix(1 0 0 1 314.114 508.4404)" class="st18"><tspan x="0" y="0" class="st5 st19">Rogers</tspan><tspan x="1.9" y="9" class="st5 st19">Weed </tspan></text>
			</g>
		</g>
	</g>
	<g id="DanielMalarkey-bottom">
		<path class="st7" d="M373.7,494.4c-2-0.9-3.8-1.3-4.9-1.4c0-0.2,0-0.3-0.1-0.5c-0.2-0.4-0.1-0.6-1.2-0.9c-0.3-0.1-0.7-0.3-0.9-0.6
			c-0.1-0.9-0.1-1.9-0.1-1.9s1-0.5,1.4-4.2c0,0,0.6-0.3,0.7-0.6c0.1-0.3,0.3-1.4,0.7-2.5c0.3-0.9-0.5-1.1-0.5-1.1s0.3-0.7,0.4-1.4
			c0.3-1.5,0.1-3.8-1.4-5.6c-0.9-1-1.9-1.9-4-2.1l-0.7-0.3l-0.5,0.1c-5.7,0.3-6.2,5.1-5.8,7.6c0.1,0.9,0.6,1.6,0.6,1.6
			s-0.8,0.2-0.5,1.1c0.3,1.1,0.6,2.2,0.7,2.5c0.1,0.3,0.7,0.6,0.7,0.6c0.4,3.7,1.4,4.2,1.4,4.2s-0.1,1.3-0.1,2.1
			c-0.1,0-0.1,0.1-0.1,0.1c-1,0.6-2.1,0.9-2.5,1.7l0,0c-1.1,0.2-2.7,0.6-4.5,1.4c-3.2,1.4-2.7,4.1-2.7,4.1h26.6
			C376.4,498.5,376.9,495.8,373.7,494.4z"/>
		<g>
			<g>
				<text transform="matrix(1 0 0 1 351.1819 508.4404)" class="st18"><tspan x="0" y="0" class="st5 st19">Daniel</tspan><tspan x="-6.6" y="9" class="st5 st19">Malarkey </tspan></text>
			</g>
		</g>
	</g>
</g>
<g id="MichaelCarr-bottom">
	<path class="st7" d="M474,494.4c-2-0.9-3.8-1.3-4.9-1.4c0-0.2,0-0.3-0.1-0.5c-0.2-0.4-0.1-0.6-1.2-0.9c-0.3-0.1-0.7-0.3-0.9-0.6
		c-0.1-0.9-0.1-1.9-0.1-1.9s1-0.5,1.4-4.2c0,0,0.6-0.3,0.7-0.6c0.1-0.3,0.3-1.4,0.7-2.5c0.3-0.9-0.5-1.1-0.5-1.1s0.3-0.7,0.4-1.4
		c0.3-1.5,0.1-3.8-1.4-5.6c-0.9-1-1.9-1.9-4-2.1l-0.7-0.3l-0.5,0.1c-5.7,0.3-6.2,5.1-5.8,7.6c0.1,0.9,0.6,1.6,0.6,1.6
		s-0.8,0.2-0.5,1.1c0.3,1.1,0.6,2.2,0.7,2.5c0.1,0.3,0.7,0.6,0.7,0.6c0.4,3.7,1.4,4.2,1.4,4.2s-0.1,1.3-0.1,2.1
		c-0.1,0-0.1,0.1-0.1,0.1c-1,0.6-2.1,0.9-2.5,1.7l0,0c-1.1,0.2-2.7,0.6-4.5,1.4c-3.2,1.4-2.7,4.1-2.7,4.1h26.6
		C476.8,498.5,477.2,495.8,474,494.4z"/>
	<g>
		<g>
			<text transform="matrix(1 0 0 1 448.484 508.4397)" class="st18"><tspan x="0" y="0" class="st5 st19">Michael</tspan><tspan x="5.5" y="9" class="st5 st19">Carr </tspan></text>
		</g>
	</g>
</g>
<g id="_x31_energy">
	<polygon class="st20" points="328.6,409.8 328.6,409.8 378.2,466.9 278.9,466.9 	"/>
	<g>
		<path class="st17" d="M340,434.5"/>
	</g>
	<text transform="matrix(1 0 0 1 302.8455 460.0696)" class="st10 st5 st11">1ENERGY</text>
</g>
<g id="unienergy">
	<polygon class="st21" points="463.5,409.8 463.5,409.8 513.1,466.9 413.8,466.9 	"/>
	<text transform="matrix(1 0 0 1 430.6934 460.0691)" class="st10 st5 st11">UNIENERGY</text>
</g>
</svg>
