<svg version="1.1" xmlns="http://www.w3.org/2000/svg" xmlns:xlink="http://www.w3.org/1999/xlink" x="0px" y="0px"
	 viewBox="0 0 630 1066.3" style="enable-background:new 0 0 630 1066.3;" xml:space="preserve" perserveAspectRatio="xMidYMid meet" width=500 height=500>
<style type="text/css">
	.B_x002F_W_x0020_Water_x0020_25k{fill:#BFBFBF;}
	.st0{fill:none;stroke:#90A75C;stroke-width:5.2859;stroke-miterlimit:10;}
	.st1{fill:#E0EECB;}
	.st2{font-family:"ff-dagny-web-pro", Helvetica Neue, Helvetica, sans-serif; font-weight: bold;}
	.st3{font-size:72px;}
	.st4{letter-spacing:-1;}
	.st5{fill:#010101;}
	.st6{font-size:28px;}
	.st7{fill:#9DCC57;}
	.st8{fill:#FFFFFF;}
	.st9{font-size:19px;}
	.st10{font-size:22px;}
	.st11{fill:none;stroke:#BCBEC0;stroke-width:34.5886;stroke-miterlimit:10;}
	.st12{fill:none;stroke:#BCBEC0;stroke-width:17.7884;stroke-miterlimit:10;}
	.st13{fill:none;stroke:#BCBEC0;stroke-width:14.8237;stroke-miterlimit:10;}
	.st14{font-size:16px;}
	.st15{enable-background:new    ;}
	.st16{fill:none;}
	.st17{fill:none;stroke:#FDD08E;stroke-width:6.3559;stroke-miterlimit:10;}
	.st18{fill:none;stroke:#B2D5D1;stroke-width:6.3559;stroke-miterlimit:10;}
	.st19{fill:#FBAF41;}
	.st20{fill:#7DB9B3;}
</style>
<g id="CEF">
	<rect x="61.5" y="118.6" class="st0" width="506.9" height="299.2"/>
	<rect x="61.5" y="118.6" class="st1" width="506.9" height="299.2"/>
	<g>
		<text transform="matrix(1 0 0 1 248.7166 220.2547)" class="st2 st3 st4">CEF</text>
	</g>
	<text transform="matrix(1 0 0 1 169.1477 252.2372)" class="st5 st2 st6">$36 million total fund</text>
</g>
<g id="CEF-smartgrid-section">
	<g>
		<rect x="61.6" y="294.6" class="st7" width="506.8" height="123.1"/>
	</g>
	<text transform="matrix(1 0 0 1 137.7429 359.8125)" class="st8 st2 st9">$15 MILLION TO SMART GRID GRANTS</text>
</g>
<g id="CEF-people">
	<path d="M135.1,53.8c-3.8-1.7-7.2-2.4-9.3-2.7c0-0.3,0-0.6-0.2-0.9c-0.3-0.8-0.1-1.2-2.3-1.8c-0.7-0.2-1.3-0.7-1.7-1.1
		c-0.1-1.6-0.2-3.6-0.2-3.6s1.9-1,2.7-8c0,0,1.2-0.5,1.4-1.1c0.2-0.6,0.6-2.6,1.3-4.8c0.5-1.7-1-2.1-1-2.1s0.5-1.3,0.8-2.7
		c0.5-2.9,0.1-7.3-2.7-10.6c-1.6-1.9-3.6-3.6-7.7-3.9l-1.4-0.6l-1,0.1c-11,0.7-11.8,9.7-11.1,14.5c0.2,1.8,1.2,3.1,1.2,3.1
		s-1.5,0.4-1,2.1c0.7,2.2,1.1,4.2,1.3,4.8c0.2,0.6,1.4,1.1,1.4,1.1c0.8,7,2.7,8,2.7,8s-0.1,2.4-0.2,4.1c-0.1,0-0.1,0.1-0.2,0.1
		c-1.9,1.1-4.1,1.6-4.7,3.3c0,0,0,0,0,0c-2.1,0.4-5.1,1.1-8.5,2.6c-6,2.6-5.2,7.8-5.2,7.8h50.8C140.4,61.7,141.1,56.5,135.1,53.8z"
		/>
	<path d="M268.5,53.8c-3.8-1.7-7.2-2.4-9.3-2.7c0-0.3,0-0.6-0.2-0.9c-0.3-0.8-0.1-1.2-2.3-1.8c-0.7-0.2-1.3-0.7-1.7-1.1
		c-0.1-1.6-0.2-3.6-0.2-3.6s1.9-1,2.7-8c0,0,1.2-0.5,1.4-1.1c0.2-0.6,0.6-2.6,1.3-4.8c0.5-1.7-1-2.1-1-2.1s0.5-1.3,0.8-2.7
		c0.5-2.9,0.1-7.3-2.7-10.6c-1.6-1.9-3.6-3.6-7.7-3.9l-1.4-0.6l-1,0.1c-11,0.7-11.8,9.7-11.1,14.5c0.2,1.8,1.2,3.1,1.2,3.1
		s-1.5,0.4-1,2.1c0.7,2.2,1.1,4.2,1.3,4.8c0.2,0.6,1.4,1.1,1.4,1.1c0.8,7,2.7,8,2.7,8s-0.1,2.4-0.2,4.1c-0.1,0-0.1,0.1-0.2,0.1
		c-1.9,1.1-4.1,1.6-4.7,3.3c0,0,0,0,0,0c-2.1,0.4-5.1,1.1-8.5,2.6c-6,2.6-5.2,7.8-5.2,7.8h50.8C273.7,61.7,274.5,56.5,268.5,53.8z"
		/>
	<path d="M401.9,53.8c-3.8-1.7-7.2-2.4-9.3-2.7c0-0.3,0-0.6-0.2-0.9c-0.3-0.8-0.1-1.2-2.3-1.8c-0.7-0.2-1.3-0.7-1.7-1.1
		c-0.1-1.6-0.2-3.6-0.2-3.6s1.9-1,2.7-8c0,0,1.2-0.5,1.4-1.1c0.2-0.6,0.6-2.6,1.3-4.8c0.5-1.7-1-2.1-1-2.1s0.5-1.3,0.8-2.7
		c0.5-2.9,0.1-7.3-2.7-10.6c-1.6-1.9-3.6-3.6-7.7-3.9l-1.4-0.6l-1,0.1c-11,0.7-11.8,9.7-11.1,14.5c0.2,1.8,1.2,3.1,1.2,3.1
		s-1.5,0.4-1,2.1c0.7,2.2,1.1,4.2,1.3,4.8c0.2,0.6,1.4,1.1,1.4,1.1c0.8,7,2.7,8,2.7,8s-0.1,2.4-0.2,4.1c-0.1,0-0.1,0.1-0.2,0.1
		c-1.9,1.1-4.1,1.6-4.7,3.3c0,0,0,0,0,0c-2.1,0.4-5.1,1.1-8.5,2.6c-6,2.6-5.2,7.8-5.2,7.8h50.8C407.1,61.7,407.8,56.5,401.9,53.8z"
		/>
	<path d="M535.2,53.8c-3.8-1.7-7.2-2.4-9.3-2.7c0-0.3,0-0.6-0.2-0.9c-0.3-0.8-0.1-1.2-2.3-1.8c-0.7-0.2-1.3-0.7-1.7-1.1
		c-0.1-1.6-0.2-3.6-0.2-3.6s1.9-1,2.7-8c0,0,1.2-0.5,1.4-1.1c0.2-0.6,0.6-2.6,1.3-4.8c0.5-1.7-1-2.1-1-2.1s0.5-1.3,0.8-2.7
		c0.5-2.9,0.1-7.3-2.7-10.6c-1.6-1.9-3.6-3.6-7.7-3.9L515,10l-1,0.1c-11,0.7-11.8,9.7-11.1,14.5c0.2,1.8,1.2,3.1,1.2,3.1
		s-1.5,0.4-1,2.1c0.7,2.2,1.1,4.2,1.3,4.8c0.2,0.6,1.4,1.1,1.4,1.1c0.8,7,2.7,8,2.7,8s-0.1,2.4-0.2,4.1c-0.1,0-0.1,0.1-0.2,0.1
		c-1.9,1.1-4.1,1.6-4.7,3.3c0,0,0,0,0,0c-2.1,0.4-5.1,1.1-8.5,2.6c-6,2.6-5.2,7.8-5.2,7.8h50.8C540.4,61.7,541.2,56.5,535.2,53.8z"
		/>
	<g>
		<text transform="matrix(1 0 0 1 84.3514 83.2598)"><tspan x="0" y="0" class="st5 st2 st10">David</tspan><tspan x="-6.6" y="23" class="st5 st2 st10">Kaplan</tspan></text>
	</g>
	<g>
		<text transform="matrix(1 0 0 1 210.2567 83.2598)"><tspan x="0" y="0" class="st5 st2 st10">Rogers </tspan><tspan x="6.9" y="23" class="st5 st2 st10">Weed</tspan></text>
	</g>
	<g>
		<text transform="matrix(1 0 0 1 347.6958 83.2598)"><tspan x="0" y="0" class="st5 st2 st10">Daniel </tspan><tspan x="-15.4" y="23" class="st5 st2 st10">Malarkey</tspan></text>
	</g>
	<g>
		<text transform="matrix(1 0 0 1 473.6498 83.2598)"><tspan x="0" y="0" class="st5 st2 st10">Michael </tspan><tspan x="17.5" y="23" class="st5 st2 st10">Carr</tspan></text>
	</g>
</g>
<g id="CEF-lines">
	<line class="st11" x1="140.7" y1="421" x2="140.7" y2="607"/>
	<line class="st12" x1="315" y1="421" x2="315" y2="607"/>
	<line class="st13" x1="486.6" y1="421" x2="486.6" y2="607"/>
</g>
<g id="avista">
	<rect x="407.1" y="608.2" class="st7" width="159" height="128.5"/>
	<text transform="matrix(1 0 0 1 431.2547 717.7372)" class="st5 st2 st14">$3.2 MILLION</text>
	<text transform="matrix(1 0 0 1 451.1804 663.0175)" class="st8 st2 st9">AVISTA</text>
</g>
<g id="pse">
	<rect x="235.5" y="608.2" class="st7" width="159" height="128.5"/>
	<text transform="matrix(1 0 0 1 259.5698 717.7372)" class="st5 st2 st14">$3.8 MILLION</text>
	<text transform="matrix(1 0 0 1 245.8711 651.5146)" class="st15"><tspan x="0" y="0" class="st8 st2 st9">PUGET SOUND</tspan><tspan x="27.5" y="24" class="st8 st2 st9">ENERGY </tspan></text>
</g>
<g id="sno-pud">
	<rect x="61.1" y="608.2" class="st7" width="159" height="128.5"/>
	<g>
		<path class="st16" d="M140.7,672.5"/>
	</g>
	<text transform="matrix(1 0 0 1 81.5379 651.5146)" class="st15"><tspan x="0" y="0" class="st8 st2 st9">SNOHOMISH</tspan><tspan x="36.6" y="24" class="st8 st2 st9">PUD </tspan></text>
	<text transform="matrix(1 0 0 1 85.7586 717.7372)" class="st5 st2 st14">$7.3 MILLION</text>
</g>
<g id="smartgrid-lines">
	<line class="st17" x1="195.2" y1="887.5" x2="157.3" y2="741.1"/>
	<line class="st17" x1="225" y1="887.5" x2="283.1" y2="741.1"/>
	<line class="st18" x1="386.4" y1="887.8" x2="212" y2="741.3"/>
	<line class="st18" x1="447.6" y1="887.8" x2="470.8" y2="741.1"/>
</g>
<g id="_x31_energy-people">
	<path class="st5" d="M158.5,1025.2c-3.5-1.6-6.6-2.2-8.5-2.5c0-0.3,0-0.5-0.2-0.8c-0.3-0.7-0.1-1.1-2.1-1.6c-0.6-0.2-1.2-0.6-1.6-1
		c-0.1-1.5-0.2-3.3-0.2-3.3s1.7-0.9,2.5-7.3c0,0,1.1-0.5,1.3-1c0.2-0.5,0.5-2.4,1.2-4.4c0.5-1.6-0.9-1.9-0.9-1.9s0.5-1.2,0.7-2.5
		c0.5-2.6,0.1-6.7-2.5-9.7c-1.5-1.7-3.3-3.3-7-3.6l-1.3-0.5l-0.9,0.1c-10,0.6-10.8,8.9-10.1,13.2c0.2,1.6,1.1,2.8,1.1,2.8
		s-1.4,0.4-0.9,1.9c0.6,2,1,3.8,1.2,4.4s1.3,1,1.3,1c0.7,6.4,2.5,7.3,2.5,7.3s-0.1,2.2-0.2,3.7c-0.1,0-0.1,0.1-0.2,0.1
		c-1.7,1-3.7,1.5-4.3,3l0,0c-1.9,0.4-4.7,1-7.8,2.4c-5.5,2.4-4.7,7.1-4.7,7.1h46.4C163.2,1032.3,164,1027.6,158.5,1025.2z"/>
	<path class="st5" d="M214,1025.2c-3.5-1.6-6.6-2.2-8.5-2.5c0-0.3,0-0.5-0.2-0.8c-0.3-0.7-0.1-1.1-2.1-1.6c-0.6-0.2-1.2-0.6-1.6-1
		c-0.1-1.5-0.2-3.3-0.2-3.3s1.7-0.9,2.5-7.3c0,0,1.1-0.5,1.3-1c0.2-0.5,0.5-2.4,1.2-4.4c0.5-1.6-0.9-1.9-0.9-1.9s0.5-1.2,0.7-2.5
		c0.5-2.6,0.1-6.7-2.5-9.7c-1.5-1.7-3.3-3.3-7-3.6l-1.3-0.5l-0.9,0.1c-10,0.6-10.8,8.9-10.1,13.2c0.2,1.6,1.1,2.8,1.1,2.8
		s-1.4,0.4-0.9,1.9c0.6,2,1,3.8,1.2,4.4s1.3,1,1.3,1c0.7,6.4,2.5,7.3,2.5,7.3s-0.1,2.2-0.2,3.7c-0.1,0-0.1,0.1-0.2,0.1
		c-1.7,1-3.7,1.5-4.3,3l0,0c-1.9,0.4-4.7,1-7.8,2.4c-5.5,2.4-4.7,7.1-4.7,7.1h46.4C218.7,1032.3,219.4,1027.6,214,1025.2z"/>
	<path class="st5" d="M271,1025.2c-3.5-1.6-6.6-2.2-8.5-2.5c0-0.3,0-0.5-0.2-0.8c-0.3-0.7-0.1-1.1-2.1-1.6c-0.6-0.2-1.2-0.6-1.6-1
		c-0.1-1.5-0.2-3.3-0.2-3.3s1.7-0.9,2.5-7.3c0,0,1.1-0.5,1.3-1c0.2-0.5,0.5-2.4,1.2-4.4c0.5-1.6-0.9-1.9-0.9-1.9s0.5-1.2,0.7-2.5
		c0.5-2.6,0.1-6.7-2.5-9.7c-1.5-1.7-3.3-3.3-7-3.6l-1.3-0.5l-0.9,0.1c-10,0.6-10.8,8.9-10.1,13.2c0.2,1.6,1.1,2.8,1.1,2.8
		s-1.4,0.4-0.9,1.9c0.6,2,1,3.8,1.2,4.4s1.3,1,1.3,1c0.7,6.4,2.5,7.3,2.5,7.3s-0.1,2.2-0.2,3.7c-0.1,0-0.1,0.1-0.2,0.1
		c-1.7,1-3.7,1.5-4.3,3l0,0c-1.9,0.4-4.7,1-7.8,2.4c-5.5,2.4-4.7,7.1-4.7,7.1h46.4C275.7,1032.3,276.5,1027.6,271,1025.2z"/>
	<text transform="matrix(1 0 0 1 125.5952 1052.9144)" class="st5 st2 st10">DK</text>
	<text transform="matrix(1 0 0 1 176.3896 1052.9144)" class="st5 st2 st10">RW</text>
	<text transform="matrix(1 0 0 1 236.606 1052.9144)" class="st5 st2 st10">DM</text>
</g>
<g id="unienergy-people">
	<path class="st5" d="M450.9,1025.2c-3.5-1.6-6.6-2.2-8.5-2.5c0-0.3,0-0.5-0.2-0.8c-0.3-0.7-0.1-1.1-2.1-1.6c-0.6-0.2-1.2-0.6-1.6-1
		c-0.1-1.5-0.2-3.3-0.2-3.3s1.7-0.9,2.5-7.3c0,0,1.1-0.5,1.3-1c0.2-0.5,0.5-2.4,1.2-4.4c0.5-1.6-0.9-1.9-0.9-1.9s0.5-1.2,0.7-2.5
		c0.5-2.6,0.1-6.7-2.5-9.7c-1.5-1.7-3.3-3.3-7-3.6l-1.3-0.5l-0.9,0.1c-10,0.6-10.8,8.9-10.1,13.2c0.2,1.6,1.1,2.8,1.1,2.8
		s-1.4,0.4-0.9,1.9c0.6,2,1,3.8,1.2,4.4s1.3,1,1.3,1c0.7,6.4,2.5,7.3,2.5,7.3s-0.1,2.2-0.2,3.7c-0.1,0-0.1,0.1-0.2,0.1
		c-1.7,1-3.7,1.5-4.3,3l0,0c-1.9,0.4-4.7,1-7.8,2.4c-5.5,2.4-4.7,7.1-4.7,7.1h46.4C455.7,1032.3,456.4,1027.6,450.9,1025.2z"/>
	<text transform="matrix(1 0 0 1 414.3141 1052.9144)" class="st5 st2 st10">MC</text>
</g>
<g id="_x31_energy">
	<rect x="118.9" y="887.5" class="st19" width="157.3" height="90.5"/>
	<g>
		<path class="st16" d="M217.4,926"/>
	</g>
	<text transform="matrix(1 0 0 1 152.6948 938.4154)" class="st8 st2 st9">1ENERGY</text>
</g>
<g id="unienergy">
	<rect x="353.9" y="887.5" class="st20" width="157.3" height="90.5"/>
	<text transform="matrix(1 0 0 1 375.4474 938.4154)" class="st8 st2 st9">UNIENERGY</text>
</g>
</svg>
